<svg id="Layer_1" data-name="Layer 1" xmlns="http://www.w3.org/2000/svg" viewBox="0 0 500 500"><defs><style>.cls-1{fill:#f15a24;}.cls-1,.cls-2,.cls-3{stroke:#fff;stroke-width:0.25px;}.cls-1,.cls-2,.cls-3,.cls-4{stroke-miterlimit:10;}.cls-2{fill:#f7931e;}.cls-3{fill:#ed1c24;}.cls-4{fill:none;stroke:#000;}</style></defs><polygon class="cls-1" points="196.79 260.32 196.79 202.34 173.04 188.37 173.04 156.47 246.62 199.55 246.62 231.91 223.8 217.94 223.8 276.16 196.79 260.32"/><polygon class="cls-2" points="246.45 199.31 246.45 232.38 267.87 218.18 268.1 243.32 246.68 256.13 246.68 289.43 294.65 260.32 294.65 202.11 317.24 188.6 317.24 156.93 246.45 199.31"/><polygon class="cls-3" points="173.35 156.88 245.98 111.7 271.6 128 226.42 156.41 247.15 171.78 292.32 139.41 317.47 156.88 246.45 199.94 173.35 156.88"/><path class="cls-1" d="M81.34,308.87H70.52v-7.45H101v7.45H90.23v31.85H81.34Z"/><path class="cls-1" d="M106.44,298.47h8.87v10.32l-.4,5.42c2.24-2,5.16-4.13,9.24-4.13,6.5,0,9.28,4.59,9.28,12.06v18.58h-8.87V323.28c0-4.31-1.15-5.65-3.72-5.65-2.22,0-3.58,1-5.53,2.91v20.18h-8.87Z"/><path class="cls-1" d="M139.14,325.77c0-9.71,6.92-15.69,14.11-15.69,8.52,0,12.74,6.19,12.74,14.36a20,20,0,0,1-.37,3.91H147.73c.79,4.34,3.76,6.33,7.76,6.33a12.5,12.5,0,0,0,6.47-1.95l2.93,5.34a19.51,19.51,0,0,1-10.62,3.37C145.74,341.44,139.14,335.67,139.14,325.77Zm19.28-3.28c0-3.29-1.43-5.66-5-5.66-2.8,0-5.22,1.88-5.82,5.66Z"/><path class="cls-3" d="M183.06,321.29c0-13,8.62-20.6,18.55-20.6a16.59,16.59,0,0,1,11.82,5.1l-4.68,5.7c-2-1.84-4.1-3.13-6.94-3.13-5.39,0-9.65,4.76-9.65,12.64,0,8.07,3.76,12.77,9.51,12.77a10.33,10.33,0,0,0,7.68-3.68l4.69,5.58a16.17,16.17,0,0,1-12.69,5.77C191.38,341.44,183.06,334.53,183.06,321.29Z"/><path class="cls-3" d="M217.54,325.77c0-9.95,7-15.69,14.57-15.69s14.57,5.74,14.57,15.69-7,15.67-14.57,15.67S217.54,335.69,217.54,325.77Zm20.06,0c0-5.18-1.82-8.54-5.49-8.54s-5.49,3.36-5.49,8.54,1.82,8.52,5.49,8.52S237.6,331,237.6,325.77Z"/><path class="cls-3" d="M251.2,325.77c0-9.78,6.11-15.69,12.41-15.69A9.85,9.85,0,0,1,271,313.2l-.32-4.54V298.47h8.86v42.25h-7.23l-.64-3h-.22a11.82,11.82,0,0,1-8,3.69C256,341.44,251.2,335.54,251.2,325.77Zm19.43,5.74V319.22a7.28,7.28,0,0,0-4.95-1.89c-2.87,0-5.39,2.65-5.39,8.34,0,5.87,2,8.52,5.46,8.52A5.72,5.72,0,0,0,270.63,331.51Z"/><path class="cls-3" d="M286.61,301.79c0-2.72,2.16-4.63,5.13-4.63s5.13,1.91,5.13,4.63-2.16,4.63-5.13,4.63S286.61,304.49,286.61,301.79Zm.69,9h8.86v29.92H287.3Z"/><path class="cls-3" d="M303.94,310.8h7.23l.64,3.79H312c2.52-2.42,5.54-4.51,9.62-4.51,6.5,0,9.28,4.59,9.28,12.06v18.58h-8.87V323.28c0-4.31-1.15-5.65-3.72-5.65-2.22,0-3.58,1-5.53,2.91v20.18h-8.87Z"/><path class="cls-3" d="M336.6,345.85c0-2.48,1.49-4.49,4.24-6v-.24a5.81,5.81,0,0,1-2.73-5.08,7.26,7.26,0,0,1,3.34-5.6v-.25a9.54,9.54,0,0,1-4-7.76c0-7.18,5.93-10.82,12.37-10.82a14.62,14.62,0,0,1,4.64.72h10.94v6.46h-4.81a7.82,7.82,0,0,1,1,3.94c0,6.88-5.23,10.05-11.78,10.05a12.76,12.76,0,0,1-3.65-.58,2.56,2.56,0,0,0-1,2.23c0,1.47,1.2,2.19,4.47,2.19h4.86c7.33,0,11.42,2.25,11.42,7.61,0,6.21-6.48,10.74-16.74,10.74C342.16,353.44,336.6,351.17,336.6,345.85Zm20.77-1.64c0-1.89-1.62-2.32-4.56-2.32h-3.1a16.08,16.08,0,0,1-4.2-.38,3.76,3.76,0,0,0-1.61,2.93c0,2.27,2.62,3.43,6.63,3.43S357.37,346.28,357.37,344.21Zm-3.48-23.31c0-3.19-1.73-4.86-4.09-4.86s-4.08,1.66-4.08,4.86,1.75,5,4.08,5S353.89,324.18,353.89,320.9Z"/><path class="cls-2" d="M379.76,334.33l6-4.49c1.46,2.7,3.47,3.93,5.48,3.93,3.18,0,4.89-1.62,4.89-6.87V301.42h8.89v26.22c0,7.56-3.92,13.8-12.61,13.8C386.44,341.44,382.49,339.09,379.76,334.33Z"/><path class="cls-2" d="M413.4,310.8h7.23l.64,5.23h.22c2.18-4,5.45-5.95,8.5-5.95a8.39,8.39,0,0,1,3.57.6l-1.48,7.65a12.25,12.25,0,0,0-3.23-.48c-2.25,0-5,1.45-6.59,5.53v17.34H413.4Z"/><line class="cls-4" x1="91.9" y1="359.23" x2="398.61" y2="359.23"/><path d="M149.9,377.49H146v-1.41h9.53v1.41h-3.94V389.1H149.9Z"/><path d="M156.62,385.57v-6.11h1.63v5.9c0,1.8.55,2.56,1.82,2.56,1,0,1.67-.48,2.59-1.62v-6.84h1.63v9.64h-1.35l-.14-1.51h-.05a4.09,4.09,0,0,1-3.18,1.75C157.54,389.34,156.62,388,156.62,385.57Z"/><path d="M167.54,379.46h1.35l.14,1.76h.05a3.32,3.32,0,0,1,2.74-2,2.28,2.28,0,0,1,1,.2l-.3,1.43a2.81,2.81,0,0,0-.94-.16c-.81,0-1.78.59-2.44,2.22v6.19h-1.63Z"/><path d="M174.42,379.46h1.35l.14,1.39H176a4.62,4.62,0,0,1,3.24-1.63c2,0,2.94,1.31,2.94,3.77v6.11h-1.63v-5.9c0-1.79-.54-2.56-1.82-2.56-1,0-1.67.5-2.63,1.48v7h-1.64Z"/><path d="M185,376.42a1.13,1.13,0,0,1,2.26,0,1.13,1.13,0,0,1-2.26,0Zm.3,3h1.63v9.64h-1.63Z"/><path d="M190.15,379.46h1.35l.14,1.39h.05a4.62,4.62,0,0,1,3.23-1.63c2,0,3,1.31,3,3.77v6.11h-1.63v-5.9c0-1.79-.55-2.56-1.82-2.56-1,0-1.67.5-2.64,1.48v7h-1.63Z"/><path d="M200.27,391a2.68,2.68,0,0,1,1.41-2.18v-.08a1.8,1.8,0,0,1-.86-1.58,2.31,2.31,0,0,1,1.06-1.79v-.08a3.35,3.35,0,0,1-1.25-2.59,3.43,3.43,0,0,1,3.62-3.44,4,4,0,0,1,1.36.24H209v1.26h-2a2.8,2.8,0,0,1,.78,2,3.29,3.29,0,0,1-3.53,3.34,3.47,3.47,0,0,1-1.44-.32,1.4,1.4,0,0,0-.61,1.14c0,.61.4,1,1.69,1h1.87c2.25,0,3.37.71,3.37,2.31,0,1.79-1.89,3.33-4.87,3.33C201.9,393.54,200.27,392.62,200.27,391Zm7.27-.51c0-.89-.68-1.2-1.95-1.2h-1.66a5.78,5.78,0,0,1-1.26-.14,2,2,0,0,0-1,1.62c0,1,1.05,1.69,2.8,1.69S207.54,391.46,207.54,390.45Zm-1.24-7.79a2.06,2.06,0,1,0-4.1,0,2.06,2.06,0,1,0,4.1,0Z"/><path d="M217.22,384.06l-3.91-8h1.77l1.68,3.68c.42,1,.81,1.86,1.26,2.84h.08c.45-1,.9-1.88,1.3-2.84l1.68-3.68h1.71l-3.91,8v5h-1.66Z"/><path d="M222.87,384.29c0-3.21,2.11-5.07,4.47-5.07s4.47,1.86,4.47,5.07-2.11,5-4.47,5S222.87,387.49,222.87,384.29Zm7.25,0c0-2.21-1.12-3.71-2.78-3.71s-2.78,1.5-2.78,3.71,1.12,3.69,2.78,3.69S230.12,386.5,230.12,384.29Z"/><path d="M234.21,385.57v-6.11h1.63v5.9c0,1.8.54,2.56,1.82,2.56,1,0,1.67-.48,2.58-1.62v-6.84h1.63v9.64h-1.35l-.13-1.51h-.06a4.06,4.06,0,0,1-3.18,1.75C235.12,389.34,234.21,388,234.21,385.57Z"/><path d="M245.13,379.46h1.34l.14,1.76h.06a3.3,3.3,0,0,1,2.74-2,2.34,2.34,0,0,1,1,.2l-.31,1.43a2.79,2.79,0,0,0-.93-.16c-.82,0-1.79.59-2.44,2.22v6.19h-1.63Z"/><path d="M255.37,382.61c0-4.2,2.47-6.76,5.78-6.76a4.83,4.83,0,0,1,3.58,1.6l-.91,1.08a3.53,3.53,0,0,0-2.64-1.23c-2.46,0-4.1,2-4.1,5.26s1.56,5.32,4,5.32a3.91,3.91,0,0,0,3-1.46l.91,1a5,5,0,0,1-4,1.88C257.8,389.34,255.37,386.83,255.37,382.61Z"/><path d="M267.3,375h1.63v3.87l-.06,2a4.6,4.6,0,0,1,3.2-1.6c2,0,2.95,1.31,2.95,3.77v6.11h-1.64v-5.9c0-1.79-.54-2.56-1.81-2.56-1,0-1.67.5-2.64,1.48v7H267.3Z"/><path d="M277.79,376.42a1.13,1.13,0,0,1,2.25,0,1.13,1.13,0,0,1-2.25,0Zm.3,3h1.63v9.64h-1.63Z"/><path d="M283,387.17V375h1.63v12.32c0,.49.21.69.45.69a1.38,1.38,0,0,0,.36,0l.22,1.25a2.7,2.7,0,0,1-.94.15C283.47,389.34,283,388.56,283,387.17Z"/><path d="M287.33,384.29c0-3.12,2-5.07,4.18-5.07a3.94,3.94,0,0,1,2.7,1.12l-.07-1.65V375h1.63V389.1h-1.35l-.13-1.14h-.06a4.25,4.25,0,0,1-2.92,1.38C288.9,389.34,287.33,387.51,287.33,384.29Zm6.81,2.36v-5a3.39,3.39,0,0,0-2.35-1c-1.54,0-2.77,1.48-2.77,3.68s1,3.69,2.65,3.69A3.34,3.34,0,0,0,294.14,386.65Z"/><path d="M302.2,387.41l1-1.14a5.06,5.06,0,0,0,3.59,1.61c1.71,0,2.72-.85,2.72-2.11s-.94-1.75-2.17-2.29l-1.87-.83a3.64,3.64,0,0,1-2.64-3.35c0-2,1.73-3.45,4.1-3.45a5.34,5.34,0,0,1,3.83,1.61l-.88,1.06a4.16,4.16,0,0,0-2.95-1.22c-1.46,0-2.43.74-2.43,1.9s1.14,1.73,2.16,2.16l1.85.8c1.51.65,2.69,1.55,2.69,3.48s-1.7,3.7-4.44,3.7A6.24,6.24,0,0,1,302.2,387.41Z"/><path d="M313.59,379.46h1.34l.14,1.4h.06a4.29,4.29,0,0,1,3-1.64,2.55,2.55,0,0,1,2.66,1.84,4.56,4.56,0,0,1,3.18-1.84c2,0,2.93,1.31,2.93,3.77v6.11h-1.63v-5.9c0-1.79-.57-2.56-1.79-2.56a3.53,3.53,0,0,0-2.42,1.48v7h-1.63v-5.9c0-1.79-.57-2.56-1.8-2.56a3.57,3.57,0,0,0-2.41,1.48v7h-1.63Z"/><path d="M329.43,386.6c0-2.1,1.81-3.15,5.92-3.6,0-1.24-.41-2.43-2-2.43a5.26,5.26,0,0,0-2.87,1l-.64-1.12a7.07,7.07,0,0,1,3.78-1.26c2.36,0,3.35,1.57,3.35,4v5.91h-1.34L335.5,388h-.06a5.12,5.12,0,0,1-3.19,1.39A2.62,2.62,0,0,1,329.43,386.6Zm5.92.15v-2.68c-3.23.39-4.32,1.18-4.32,2.42,0,1.09.74,1.54,1.69,1.54A4,4,0,0,0,335.35,386.75Z"/><path d="M340,379.46h1.35l.14,1.76h.05a3.32,3.32,0,0,1,2.74-2,2.28,2.28,0,0,1,1,.2l-.3,1.43a2.81,2.81,0,0,0-.94-.16c-.81,0-1.78.59-2.44,2.22v6.19H340Z"/><path d="M347.19,386.12v-5.33h-1.43v-1.24l1.5-.09.2-2.7h1.36v2.7h2.61v1.33h-2.61v5.36c0,1.18.38,1.86,1.49,1.86a3.16,3.16,0,0,0,1.1-.26l.32,1.23a5.65,5.65,0,0,1-1.79.36C347.89,389.34,347.19,388,347.19,386.12Z"/></svg>